<?xml version="1.0" encoding="iso-8859-1"?>
<!-- Uploaded to: SVG Repo, www.svgrepo.com, Generator: SVG Repo Mixer Tools -->
<!DOCTYPE svg PUBLIC "-//W3C//DTD SVG 1.1//EN" "http://www.w3.org/Graphics/SVG/1.1/DTD/svg11.dtd">
<svg fill="#000000" height="800px" width="800px" version="1.1" id="Capa_1" xmlns="http://www.w3.org/2000/svg" xmlns:xlink="http://www.w3.org/1999/xlink" 
	 viewBox="0 0 296 296" xml:space="preserve">
<path d="M294.54,95.175l-7.695-10.7c-0.236-12.151-4.133-24.975-12.372-36.394c-6.918-9.615-15.711-16.783-25.137-21.268
	c-5.349-3.709-13.675-6.508-23.32-7.197c-0.34-0.019-4.811-0.038-12.016-0.058v5.275c0,20.494-10.075,39.678-26.948,51.311
	c-7.702,5.31-17.713,5.911-25.995,1.562c-6.376-3.349-10.906-9.211-12.659-15.998c-0.145-0.559-0.27-1.125-0.376-1.696
	c25.065-0.243,44.448-21.296,44.448-39.431h-18.563c0,8.246-11.791,20.879-26.32,20.879h-0.001
	c-14.53,0-26.321-12.634-26.321-20.879h-18.563c0,18.24,19.607,39.442,44.884,39.442c0.13,0,0.258-0.009,0.389-0.01
	c-0.106,0.571-0.231,1.136-0.375,1.695c-1.753,6.787-6.283,12.649-12.659,15.998c-8.282,4.35-18.293,3.748-25.995-1.562
	C92.076,64.512,82,45.327,82,24.833v-5.281c-7.141,0.02-11.6,0.046-12.026,0.064c-9.644,0.689-17.969,3.488-23.32,7.197
	c-9.424,4.485-18.218,11.653-25.137,21.268C13.295,59.5,9.381,72.323,9.146,84.475l-7.68,10.7c-1.202,1.642-1.701,3.709-1.363,5.73
	c0.336,2.038,1.451,3.826,3.107,5.028l46.303,33.302c3.444,2.505,8.265,1.729,10.758-1.731l7.02-9.777
	c11.707,29.247,3.185,92.346-7.036,131.634c-1.064,4.091-0.173,8.444,2.414,11.787c2.586,3.344,6.576,5.3,10.804,5.3h149.094
	c4.225,0,8.211-1.958,10.796-5.299c2.585-3.342,3.484-7.696,2.421-11.785c-10.212-39.284-18.738-102.371-7.057-131.591l7.006,9.732
	c2.491,3.46,7.299,4.235,10.743,1.731l46.317-33.302c1.657-1.202,2.771-2.99,3.108-5.028
	C296.225,98.883,295.741,96.817,294.54,95.175z M147.59,187.101c-4.488,0-8.123-3.636-8.123-8.128c0-4.483,3.635-8.118,8.123-8.118
	c4.483,0,8.118,3.635,8.118,8.118C155.709,183.465,152.073,187.101,147.59,187.101z M147.59,148.116
	c-4.488,0-8.123-3.636-8.123-8.128c0-4.483,3.635-8.119,8.123-8.119c4.483,0,8.118,3.635,8.118,8.119
	C155.709,144.48,152.073,148.116,147.59,148.116z M147.59,109.132c-4.488,0-8.123-3.636-8.123-8.128
	c0-4.483,3.635-8.119,8.123-8.119c4.483,0,8.118,3.635,8.118,8.119C155.709,105.496,152.073,109.132,147.59,109.132z"/>
</svg>