<?xml version="1.0" encoding="UTF-8" standalone="no"?>
<!-- Uploaded to: SVG Repo, www.svgrepo.com, Generator: SVG Repo Mixer Tools -->
<svg width="800px" height="800px" viewBox="0 0 64 64" version="1.1" xmlns="http://www.w3.org/2000/svg" xmlns:xlink="http://www.w3.org/1999/xlink">
    
    <title>clo-polo</title>
    <desc>Created with Sketch.</desc>
    <defs>

</defs>
    <g id="64px-Glyph" stroke="none" stroke-width="1" fill="none" fill-rule="evenodd">
        <g id="clo-polo" fill="#000000">
            <polygon id="Fill-252" points="29.586 12.9999 23.586 6.9999 22.128 8.4579 27.128 15.4579">

</polygon>
            <polygon id="Fill-253" points="25.4142 6 31.0002 11.586 36.5862 6">

</polygon>
            <polygon id="Fill-254" points="39.8723 8.4581 38.4143 7.0001 32.4143 13.0001 34.8723 15.4581">

</polygon>
            <path d="M41.0001,24 L37.0001,24 C36.4481,24 36.0001,23.552 36.0001,23 C36.0001,22.448 36.4481,22 37.0001,22 L41.0001,22 C41.5521,22 42.0001,22.448 42.0001,23 C42.0001,23.552 41.5521,24 41.0001,24 M57.8321,24.445 L51.5551,15.03 C50.3151,13.169 48.5621,11.748 46.4051,10.889 L41.6251,9.446 L35.8141,17.581 C35.6431,17.82 35.3751,17.972 35.0821,17.997 C35.0551,17.999 35.0271,18 35.0001,18 C34.7361,18 34.4811,17.896 34.2931,17.707 L32.0001,15.414 L32.0001,25 C32.0001,25.552 31.5521,26 31.0001,26 C30.4481,26 30.0001,25.552 30.0001,25 L30.0001,15.414 L27.7071,17.707 C27.4991,17.915 27.2101,18.021 26.9171,17.997 C26.6241,17.972 26.3571,17.82 26.1861,17.581 L20.3761,9.447 L15.5131,10.918 C13.4371,11.748 11.6851,13.169 10.4451,15.03 L4.1681,24.445 C4.0211,24.666 3.9671,24.936 4.0191,25.196 C4.0711,25.456 4.2251,25.685 4.4451,25.832 L13.4451,31.832 C13.8851,32.125 14.4801,32.024 14.8001,31.6 L16.0001,30 L16.0001,57 C16.0001,57.552 16.4481,58 17.0001,58 L45.0001,58 C45.5521,58 46.0001,57.552 46.0001,57 L46.0001,30 L47.2001,31.6 C47.5191,32.025 48.1141,32.125 48.5551,31.832 L57.5551,25.832 C57.7751,25.685 57.9291,25.456 57.9801,25.196 C58.0331,24.936 57.9791,24.666 57.8321,24.445" id="Fill-255">

</path>
        </g>
    </g>
</svg>